<?xml version="1.0" encoding="UTF-8"?>
<svg width="500" height="200" version="1.1" viewBox="0 0 125 50" xmlns="http://www.w3.org/2000/svg">
 <path d="m30.946 2.0412-7.8464 9.4494-10.968-5.2309c-0.25311 0-0.50622-0.25311-0.75932 0-0.25311 0-0.25311 0.25311 0 0.75933l2.5311 12.065-10.968 5.2309c-0.25311 0-0.50622 0.25311-0.50622 0.50622s0.25311 0.50622 0.50622 0.50622l10.968 5.484-2.6155 12.065v0.75933h0.75933l10.968-5.2309 7.5932 9.7025c0.25311 0.25311 0.50622 0.50622 0.75933 0.25311 0.25311 0 0.25311-0.25311 0.50622-0.50622l2.8686-11.812h12.402c0.25311 0 0.50622 0 0.75932-0.25311 0-0.25311 0-0.50622-0.25311-0.75932l-7.5933-9.7025 7.9307-9.7025c0.25311-0.25311 0.25311-0.50622 0.25311-0.75932s-0.25311-0.25311-0.75933-0.25311h-3.1217c-0.25311 0-0.50622 0-0.50622 0.25311l-11.643 12.318h-0.25311v-0.25311c0.25311-0.25311 6.5808-8.0995 9.9556-12.065v-0.25311c0-0.25311 0-0.25311-0.25311-0.25311h-3.9654c-0.25311 0-0.75932 0.25311-0.75932 0.50622-1.8561 2.1092-11.306 12.065-11.559 12.065h-0.16874v-0.25311l9.7025-11.812c0.25311-0.25311 0.25311-0.50622 0.25311-0.75932 0 0-2.6155-11.812-2.6155-12.065 6e-6 -0.25311-0.2531-0.50622-0.50621-0.50622-0.84369 0.25311-1.0968 0.25311-1.0968 0.50622z" fill="#a91f23"/>
 <path d="m10.275 26.087c-2.8686 0-5.484-0.50622-7.8464-1.603 0 0 0.25311 0 0.25311-0.25311l10.968-5.2309-2.6155-12.065v-0.75932h0.75932l10.968 5.2309 7.8464-9.4494c0.25311-0.25311 0.50622-0.25311 0.50622-0.25311 0 1.0124 0.25311 1.8561 0.25311 2.8686 0.33748 11.896-9.365 21.514-21.092 21.514zm29.867-10.462c0.25311-0.25311 0.50622-0.75932 0.75932-1.0124h-3.6279c-0.25311 0-0.50622 0.25311-0.75932 0.25311 0 0.50622 0 1.3499 0.50622 1.603 0.50622 0.75933 2.0249 0.25311 3.1217-0.84369zm3.6279-1.2655c-0.25311 0-0.50622 0-0.50622 0.25311l-0.25311 0.25311c0 0.50622 0.25311 0.75932 0.50622 1.0124 0.75932 0.75932 2.3623 0.25311 3.1217-0.75933 0.25311-0.25311 0.25311-0.50622 0.50622-0.75932h-3.3748z" fill="#ec2024"/>
 <radialGradient id="a" cx="37.87" cy="53.63" r="45.24" gradientTransform="matrix(.84369 0 0 .84369 -.9457 -3.6959)" gradientUnits="userSpaceOnUse">
  <stop stop-color="#de1f26" offset=".49"/>
  <stop stop-color="#e84b4f" offset=".74"/>
  <stop stop-color="#f27778" offset="1"/>
 </radialGradient>
 <path d="m45.879 15.372h-2.1092c-0.50622 0-0.75932 0.25311-1.0124 0.50622-3.9654 4.2185-10.462 10.968-10.715 10.968-0.75932 0.75932-1.3499 0.25311-0.50622-0.50622 0.25311-0.25311 5.484-6.5808 8.6057-10.462 0-0.25311 0.25311-0.50622 0-0.50622h-3.1217c-0.25311 0-0.50622 0-0.75932 0.25311-3.9654 4.2185-10.715 11.306-10.968 11.306-0.75933 0.75932-1.3499 0.25311-0.50622-0.50622 0.25311-0.25311 5.9902-7.3401 8.9432-11.306 0.25311-0.25311 0.25311-0.50622 0.25311-1.0124l-2.5311-10.546c0-0.25311-0.25311-0.50622-0.50622 0l-7.087 8.6057c-0.25311 0.25311-0.75932 0.50622-1.0124 0.25311l-9.9556-4.9778c-0.25311 0-0.50622 0-0.50622 0.25311l2.3623 10.968c0 0.25311 0 0.75932-0.50622 1.0124l-10.04 4.8934c-0.25311 0-0.25311 0.50622 0 0.50622l9.9556 4.9778c0.25311 0 0.50622 0.50622 0.50622 1.0124l-2.6155 10.799c0 0.25311 0 0.50622 0.50622 0.25311l10.209-4.7247c0.25311 0 0.75933 0 1.0124 0.25311l6.8339 8.6057c0.25311 0.25311 0.50622 0.25311 0.50622 0l2.6155-10.715c0-0.25311 0.50622-0.50622 0.75932-0.50622h10.968c0.25311 0 0.50622-0.25311 0.25311-0.50622l-6.8339-8.9432c-0.25311-0.25311-0.25311-0.75933 0-1.0124l7.087-8.6057c0.42185-0.33748 0.16874-0.59059-0.08436-0.59059z" fill="url(#a)" stroke-width="1.6964"/>
 <path d="m60.56 16.468c2.1092-2.1092 4.2185-2.8686 6.8339-2.8686 4.9778 0 7.8464 2.8686 7.8464 8.6057v13.33h-5.9902v-12.318c0-3.1217-1.0124-4.7247-3.1217-4.7247-1.8561 0-2.8686 0.75932-4.7247 2.6155v14.427h-5.9902v-17.549c-0.25311 0-1.8561-0.25311-1.8561-0.25311v-3.3748l6.5808-0.25311c0.16874 0 0.42185 1.5186 0.42185 2.3623m52.14 2.0249c-1.603 0-3.1217 0.75932-4.9778 2.8686v9.1963c0.75933 0.25311 2.1092 0.75932 3.3748 0.75932 4.2185 0 4.9778-3.3748 4.9778-6.5808 0.25312-4.1341-0.75932-6.2433-3.3748-6.2433m-4.7247-12.571v9.9556c1.8561-1.603 3.6279-2.3623 5.9902-2.3623 5.2309 0 8.6057 3.9654 8.6057 10.462 0 7.5933-4.2185 12.065-11.559 12.065-2.6155 0-5.9902-0.50622-8.9432-1.3499v-24.889c-0.25312 0-2.1092-0.25311-2.1092-0.25311v-3.3748zm-28.011 8.9432c2.3623-0.75932 5.2309-1.3499 7.8464-1.3499 5.9902 0 9.1963 2.6155 9.1963 7.5932v10.715c0.50621 0 2.1092 0.25311 2.1092 0.25311v3.3748l-6.5808 0.25311s-0.2531-1.0124-0.2531-1.603c-1.8561 1.603-3.9654 2.3623-6.3277 2.3623-4.7247 0-7.5932-2.6155-7.5932-6.8339 0-4.7247 3.6279-7.087 10.715-7.087h2.1092v-0.75933c0-2.3623-0.50622-3.3748-3.9654-3.3748-1.8561 0-4.2185 0.50622-5.9902 1.3499h-0.50621l-1.0124-4.4716 0.25311-0.42185m4.1341 14.427c0 1.603 1.0124 2.6155 2.8686 2.6155 1.603 0 2.6154-0.50622 4.2185-1.8561v-3.3748h-2.1092c-4.3872-0.25311-4.9778 1.2655-4.9778 2.6155" fill="#231f20"/>
</svg>
